# This file uses centimeters as units for non-parametric coordinates.

mtllib TimeBoost.mtl
g default
v -0.500000 -0.500000 0.178073
v 0.500000 -0.500000 0.178073
v -0.500000 0.500000 0.178073
v 0.500000 0.500000 0.178073
v -0.500000 0.500000 -0.178073
v 0.500000 0.500000 -0.178073
v -0.500000 -0.500000 -0.178073
v 0.500000 -0.500000 -0.178073
v 0.000000 -0.661577 0.178073
v 0.000000 -0.661577 -0.178073
v 0.000000 0.661577 -0.178073
v 0.000000 0.661577 0.178073
v -0.661577 0.000000 0.178073
v 0.000000 0.000000 0.178073
v 0.661577 0.000000 0.178073
v 0.661577 0.000000 -0.178073
v 0.000000 0.000000 -0.178073
v -0.661577 0.000000 -0.178073
vt 0.519846 0.672978
vt 0.519746 0.801210
vt 0.294023 0.038213
vt 0.415512 0.688239
vt 0.519998 0.478507
vt 0.411221 0.464120
vt 0.378961 0.353969
vt 0.520096 0.352881
vt 0.519638 0.938724
vt 0.520196 0.225503
vt 0.415152 0.243763
vt 0.413370 0.903275
vt 0.734874 0.249594
vt 0.746661 0.038567
vt 0.857015 0.045387
vt 0.628798 0.464291
vt 0.625211 0.243928
vt 0.635886 0.031046
vt 0.661230 0.354190
vt 0.305480 0.249258
vt 0.380168 0.795764
vt 0.183659 0.044860
vt 0.659332 0.795983
vt 0.624156 0.688403
vt 0.520352 0.026157
vt 0.404810 0.030865
vt 0.195387 0.255454
vt 0.844957 0.255962
vt 0.625961 0.903441
vn 0.000000 0.000000 1.000000
vn 0.000000 0.000000 1.000000
vn 0.000000 0.000000 1.000000
vn 0.000000 0.000000 1.000000
vn 0.000000 1.000000 0.000000
vn 0.000000 1.000000 0.000000
vn 0.307497 0.951549 0.000000
vn 0.307497 0.951549 0.000000
vn 0.000000 0.000000 -1.000000
vn 0.000000 0.000000 -1.000000
vn 0.000000 0.000000 -1.000000
vn 0.000000 0.000000 -1.000000
vn 0.000000 -1.000000 0.000000
vn 0.000000 -1.000000 0.000000
vn 0.307497 -0.951549 0.000000
vn 0.307497 -0.951549 0.000000
vn 1.000000 0.000000 0.000000
vn 1.000000 0.000000 0.000000
vn 0.951549 0.307497 0.000000
vn 0.951549 0.307497 0.000000
vn -1.000000 0.000000 0.000000
vn -1.000000 0.000000 0.000000
vn -0.951549 0.307497 0.000000
vn -0.951549 0.307497 0.000000
vn -0.307497 -0.951549 0.000000
vn -0.307497 -0.951549 0.000000
vn 0.000000 0.000000 -1.000000
vn 0.000000 0.000000 -1.000000
vn -0.307497 0.951549 0.000000
vn -0.307497 0.951549 0.000000
vn 0.000000 0.000000 1.000000
vn 0.000000 0.000000 1.000000
vn 0.000000 0.000000 1.000000
vn 0.000000 0.000000 1.000000
vn 0.000000 0.000000 1.000000
vn 0.951549 -0.307497 0.000000
vn 0.951549 -0.307497 0.000000
vn 0.000000 0.000000 -1.000000
vn 0.000000 0.000000 -1.000000
vn 0.000000 0.000000 -1.000000
vn -0.951549 -0.307497 0.000000
vn -0.951549 -0.307497 0.000000
s 1
g TimeBoost
usemtl initialShadingGroup
f 12/1/1 14/2/2 15/21/3 4/4/4
s 2
f 11/5/5 12/1/6 4/4/7 6/6/8
s 3
f 16/7/9 17/8/10 11/5/11 6/6/12
s 4
f 9/25/13 10/10/14 8/11/15 2/26/16
s 5
f 15/3/17 16/20/18 6/27/19 4/22/20
s 6
f 18/13/21 13/14/22 3/15/23 5/28/24
s 4
f 7/17/25 10/10/14 9/25/13 1/18/26
s 3
f 5/16/27 11/5/11 17/8/10 18/19/28
s 2
f 3/24/29 12/1/6 11/5/5 5/16/30
s 1
f 13/23/31 14/2/2 12/1/1 3/24/32
f 1/29/33 9/9/34 14/2/2 13/23/31
f 15/21/3 14/2/2 9/9/34 2/12/35
s 5
f 2/26/36 8/11/37 16/20/18 15/3/17
s 3
f 10/10/38 17/8/10 16/7/9 8/11/39
f 18/19/28 17/8/10 10/10/38 7/17/40
s 6
f 7/17/41 1/18/42 13/14/22 18/13/21
